<?xml version="1.0" encoding="iso-8859-1"?>
<!-- Generator: Adobe Illustrator 19.0.0, SVG Export Plug-In . SVG Version: 6.00 Build 0)  -->
<svg version="1.1" id="Capa_1" xmlns="http://www.w3.org/2000/svg" xmlns:xlink="http://www.w3.org/1999/xlink" x="0px" y="0px"
	 viewBox="0 0 405.266 405.266" style="enable-background:new 0 0 405.266 405.266;" xml:space="preserve">
<g>
	<g>
		<path d="M402.899,55.127l-52.56-52.72c-3.089-3.159-8.154-3.216-11.313-0.127c-0.043,0.042-0.085,0.084-0.127,0.127l-144,144
			c-1.6,1.606-2.443,3.816-2.32,6.08l1.36,27.2l-15.04,14.72c-17.669-5.819-37.109-1.176-50.24,12l-113.52,114.08
			c-19.605,18.878-20.195,50.075-1.317,69.68c18.878,19.605,50.075,20.195,69.68,1.317c0.447-0.431,0.886-0.87,1.317-1.317
			l113.84-113.84c13.138-13.017,17.867-32.302,12.24-49.92l14.96-14.96l27.2,1.36c2.193,0.035,4.305-0.833,5.84-2.4l144-144
			C406.001,63.287,406.001,58.247,402.899,55.127z M188.913,263.433c-0.495,0.528-1.006,1.04-1.534,1.534h0l-113.84,113.84
			c-12.566,13.414-33.627,14.101-47.04,1.534c-13.413-12.566-14.1-33.627-1.534-47.04c0.495-0.528,1.006-1.04,1.534-1.534
			l113.84-113.84c12.566-13.413,33.627-14.1,47.04-1.534C200.792,228.959,201.479,250.019,188.913,263.433z M250.099,196.327
			l-27.2-1.36c-2.264-0.123-4.474,0.72-6.08,2.32l-13.92,14.08c-1.26-1.657-2.623-3.234-4.08-4.72
			c-1.485-1.459-3.061-2.822-4.72-4.08l14-14c1.6-1.606,2.443-3.816,2.32-6.08l-1.36-27.2l117.76-117.92l41.12,41.12
			L250.099,196.327z M379.619,66.807l-41.52-40.4l6.48-6.48l41.52,40.4L379.619,66.807z"/>
	</g>
</g>
<g>
</g>
<g>
</g>
<g>
</g>
<g>
</g>
<g>
</g>
<g>
</g>
<g>
</g>
<g>
</g>
<g>
</g>
<g>
</g>
<g>
</g>
<g>
</g>
<g>
</g>
<g>
</g>
<g>
</g>
</svg>
