<svg id="Capa_1" enable-background="new 0 0 341.333 341.333" height="512" viewBox="0 0 341.333 341.333" width="512" xmlns="http://www.w3.org/2000/svg"><g><g><g><path d="m229.333 341.333h-117.333c-20.581 0-37.333-16.752-37.333-37.333v-181.333c0-20.581 16.752-37.333 37.333-37.333h117.333c20.581 0 37.333 16.752 37.333 37.333v181.333c.001 20.581-16.751 37.333-37.333 37.333zm-117.333-245.333c-14.704 0-26.667 11.963-26.667 26.667v181.333c0 14.704 11.963 26.667 26.667 26.667h117.333c14.704 0 26.667-11.963 26.667-26.667v-181.333c0-14.704-11.963-26.667-26.667-26.667z"/></g><g><g><path d="m117.333 96c-2.949 0-5.333-2.384-5.333-5.333v-16c0-2.949 2.384-5.333 5.333-5.333s5.333 2.384 5.333 5.333v16c.001 2.949-2.383 5.333-5.333 5.333z"/></g><g><path d="m117.333 80c-2.949 0-5.333-2.384-5.333-5.333 0-8.821 7.179-16 16-16 2.949 0 5.333 2.384 5.333 5.333s-2.384 5.333-5.333 5.333c-2.944 0-5.333 2.389-5.333 5.333 0 2.95-2.384 5.334-5.334 5.334z"/></g></g><g><g><path d="m224 96c-2.949 0-5.333-2.384-5.333-5.333v-16c0-2.949 2.384-5.333 5.333-5.333s5.333 2.384 5.333 5.333v16c0 2.949-2.384 5.333-5.333 5.333z"/></g><g><path d="m224 80c-2.949 0-5.333-2.384-5.333-5.333 0-2.944-2.389-5.333-5.333-5.333-2.949 0-5.333-2.384-5.333-5.333s2.384-5.333 5.333-5.333c8.821 0 16 7.179 16 16-.001 2.948-2.385 5.332-5.334 5.332z"/></g></g><g><path d="m213.333 69.333h-85.333c-2.949 0-5.333-2.384-5.333-5.333s2.384-5.333 5.333-5.333h85.333c2.949 0 5.333 2.384 5.333 5.333.001 2.949-2.383 5.333-5.333 5.333z"/></g><g><path d="m138.667 80c-2.949 0-5.333-2.384-5.333-5.333v-10.667c0-2.949 2.384-5.333 5.333-5.333s5.333 2.384 5.333 5.333v10.667c0 2.949-2.384 5.333-5.333 5.333z"/></g><g><path d="m160 80c-2.949 0-5.333-2.384-5.333-5.333v-10.667c0-2.949 2.384-5.333 5.333-5.333s5.333 2.384 5.333 5.333v10.667c0 2.949-2.384 5.333-5.333 5.333z"/></g><g><path d="m181.333 80c-2.949 0-5.333-2.384-5.333-5.333v-10.667c0-2.949 2.384-5.333 5.333-5.333s5.333 2.384 5.333 5.333v10.667c.001 2.949-2.383 5.333-5.333 5.333z"/></g><g><path d="m202.667 80c-2.949 0-5.333-2.384-5.333-5.333v-10.667c0-2.949 2.384-5.333 5.333-5.333s5.333 2.384 5.333 5.333v10.667c0 2.949-2.384 5.333-5.333 5.333z"/></g><g><path d="m154.667 69.333c-2.949 0-5.333-2.384-5.333-5.333v-42.667c0-2.949 2.384-5.333 5.333-5.333s5.333 2.384 5.333 5.333v42.667c0 2.949-2.384 5.333-5.333 5.333z"/></g><g><path d="m186.667 69.781c-2.949 0-5.333-2.384-5.333-5.333v-43.115c0-2.949 2.384-5.333 5.333-5.333s5.333 2.384 5.333 5.333v43.115c0 2.949-2.384 5.333-5.333 5.333z"/></g><g><path d="m224 26.667h-74.667c-2.949 0-5.333-2.384-5.333-5.333s2.384-5.334 5.333-5.334h74.667c2.949 0 5.333 2.384 5.333 5.333s-2.384 5.334-5.333 5.334z"/></g><g><path d="m224 80c-2.949 0-5.333-2.384-5.333-5.333s2.384-5.333 5.333-5.333c11.765 0 21.333-9.568 21.333-21.333s-9.568-21.334-21.333-21.334c-2.949 0-5.333-2.384-5.333-5.333s2.384-5.334 5.333-5.334c17.648 0 32 14.352 32 32s-14.352 32-32 32z"/></g><g><path d="m186.667 26.667c-2.949 0-5.333-2.384-5.333-5.333 0-5.883-4.784-10.667-10.667-10.667s-10.667 4.784-10.667 10.667c0 2.949-2.384 5.333-5.333 5.333s-5.333-2.384-5.333-5.333c-.001-11.766 9.567-21.334 21.333-21.334s21.333 9.568 21.333 21.333c0 2.95-2.384 5.334-5.333 5.334z"/></g><g><path d="m229.333 288.005h-117.333c-2.949 0-5.333-2.384-5.333-5.333v-144.011c0-2.949 2.384-5.333 5.333-5.333h117.333c2.949 0 5.333 2.384 5.333 5.333v144.011c.001 2.949-2.383 5.333-5.333 5.333zm-112-10.666h106.667v-133.344h-106.667z"/></g><g><path d="m197.333 245.339h-53.333c-2.949 0-5.333-2.384-5.333-5.333s2.384-5.333 5.333-5.333h53.333c2.949 0 5.333 2.384 5.333 5.333s-2.383 5.333-5.333 5.333z"/></g><g><path d="m181.333 261.339h-21.333c-2.949 0-5.333-2.384-5.333-5.333s2.384-5.333 5.333-5.333h21.333c2.949 0 5.333 2.384 5.333 5.333.001 2.949-2.383 5.333-5.333 5.333z"/></g><g><g><path d="m144 218.672c-8.821 0-16-7.179-16-16s7.179-16 16-16 16 7.179 16 16-7.179 16-16 16zm0-21.333c-2.944 0-5.333 2.389-5.333 5.333s2.389 5.333 5.333 5.333 5.333-2.389 5.333-5.333-2.389-5.333-5.333-5.333z"/></g><g><path d="m165.333 218.672c-8.821 0-16-7.179-16-16s7.179-16 16-16 16 7.179 16 16-7.178 16-16 16zm0-21.333c-2.944 0-5.333 2.389-5.333 5.333s2.389 5.333 5.333 5.333 5.333-2.389 5.333-5.333-2.389-5.333-5.333-5.333z"/></g><g><path d="m197.333 218.672c-2.949 0-5.333-2.384-5.333-5.333s2.384-5.333 5.333-5.333c2.944 0 5.333-2.389 5.333-5.333s-2.389-5.333-5.333-5.333c-2.949 0-5.333-2.384-5.333-5.333s2.384-5.333 5.333-5.333c8.821 0 16 7.179 16 16s-7.178 15.998-16 15.998z"/></g><g><path d="m154.667 197.339c-8.821 0-16-7.179-16-16s7.179-16 16-16 16 7.179 16 16-7.179 16-16 16zm0-21.334c-2.944 0-5.333 2.389-5.333 5.333s2.389 5.333 5.333 5.333 5.333-2.389 5.333-5.333c0-2.943-2.389-5.333-5.333-5.333z"/></g><g><path d="m186.667 197.339c-2.949 0-5.333-2.384-5.333-5.333s2.384-5.333 5.333-5.333c2.944 0 5.333-2.389 5.333-5.333s-2.389-5.333-5.333-5.333c-2.949 0-5.333-2.384-5.333-5.333s2.384-5.333 5.333-5.333c8.821 0 16 7.179 16 16 0 8.819-7.179 15.998-16 15.998z"/></g><g><path d="m197.333 197.339h-53.333c-2.949 0-5.333-2.384-5.333-5.333s2.384-5.333 5.333-5.333h53.333c2.949 0 5.333 2.384 5.333 5.333s-2.383 5.333-5.333 5.333z"/></g><g><path d="m197.333 218.672h-53.333c-2.949 0-5.333-2.384-5.333-5.333s2.384-5.333 5.333-5.333h53.333c2.949 0 5.333 2.384 5.333 5.333s-2.383 5.333-5.333 5.333z"/></g><g><path d="m186.667 176.005h-32c-2.949 0-5.333-2.384-5.333-5.333s2.384-5.333 5.333-5.333h32c2.949 0 5.333 2.384 5.333 5.333s-2.384 5.333-5.333 5.333z"/></g></g></g></g></svg>