<svg height="512" viewBox="0 0 64 64" width="512" xmlns="http://www.w3.org/2000/svg"><path d="m25 58h-12a1 1 0 0 1 -1-1v-7a1 1 0 0 1 1-1h12a1 1 0 0 1 1 1v7a1 1 0 0 1 -1 1zm-11-2h10v-5h-10z"/><path d="m14 44h-1a1 1 0 0 0 0 2h1a1 1 0 0 0 0-2z"/><path d="m29 45h-1.349l.589-1.389a1 1 0 0 0 -.3-1.175l-1.99-1.576.989-2.317a1 1 0 0 0 -.3-1.177l-1.98-1.566.991-2.327a1 1 0 0 0 -.3-1.179l-1.984-1.555 1-2.313a1 1 0 0 0 -.3-1.182l-1.986-1.557.989-2.324a1 1 0 0 0 -.3-1.177l-1.989-1.559.99-2.325a1 1 0 0 0 -.3-1.179l-1.986-1.557.988-2.313a1 1 0 0 0 -.3-1.179l-1.982-1.556.99-2.327a1 1 0 0 0 -.3-1.177l-1.953-1.535s.76-1.573.829-1.71a2.039 2.039 0 0 0 .244-.769 1 1 0 0 0 -1-1h-8a1 1 0 0 0 -1 1v58a1 1 0 0 0 1 1h20a1 1 0 0 0 1-1v-15a1 1 0 0 0 -1-1zm-19-41h5.416l-.639 1.34a1 1 0 0 0 .285 1.216l1.978 1.556-.99 2.326a1 1 0 0 0 .3 1.178l1.977 1.556-.989 2.315a1 1 0 0 0 .3 1.18l1.986 1.557-.989 2.324a1 1 0 0 0 .3 1.178l1.978 1.557-.99 2.325a1 1 0 0 0 .3 1.179l1.984 1.555-.995 2.312a1 1 0 0 0 .3 1.183l1.986 1.557-.989 2.324a1 1 0 0 0 .3 1.176l1.991 1.566-.989 2.317a1 1 0 0 0 .3 1.177l1.989 1.577-.622 1.469h-4.116l-5.722-4.768a1 1 0 0 0 -.64-.232h-5zm18 56h-18v-18h4.638l5.722 4.768a1 1 0 0 0 .64.232h7z"/><path d="m55 2h-20a1 1 0 0 0 -1 1v58a1 1 0 0 0 1 1h20a1 1 0 0 0 1-1v-58a1 1 0 0 0 -1-1zm-1 58h-2v-21a1 1 0 0 0 -2 0v21h-9v-14a1 1 0 0 0 -2 0v14h-3v-56h3v12a1 1 0 0 0 2 0v-12h4v23.284c-1.366.828-2 3.344-2 5.716s.634 4.888 2 5.716v8.284a1 1 0 0 0 2 0v-8.87a.882.882 0 0 0 .027-.13.973.973 0 0 0 -.973-.995c-.3-.13-1.054-1.521-1.054-4.005s.754-3.875 1-4a1 1 0 0 0 1-1v-24h3v6a1 1 0 0 0 2 0v-6h2z"/><path d="m46 52a1 1 0 0 0 -1 1v5a1 1 0 0 0 2 0v-5a1 1 0 0 0 -1-1z"/><path d="m49 30a1 1 0 0 0 -1 1v5a1 1 0 0 0 2 0v-5a1 1 0 0 0 -1-1z"/><path d="m51 15a1 1 0 0 0 -1 1v9a1 1 0 0 0 2 0v-9a1 1 0 0 0 -1-1z"/><path d="m40 37a1 1 0 0 0 -1 1v4a1 1 0 0 0 2 0v-4a1 1 0 0 0 -1-1z"/><path d="m40 23a1 1 0 0 0 -1 1v9a1 1 0 0 0 2 0v-9a1 1 0 0 0 -1-1z"/></svg>