<svg id="Capa_1" enable-background="new 0 0 512 512" height="512" viewBox="0 0 512 512" width="512" xmlns="http://www.w3.org/2000/svg"><g><path d="m487.866 154.423c-2.163-3.533-6.78-4.642-10.313-2.479-3.532 2.163-4.643 6.78-2.479 10.312 14.344 23.426 21.926 50.386 21.926 77.964v169.99c0 6.27-5.101 11.37-11.37 11.37-6.274 0-11.38-5.101-11.38-11.37v-169.99c0-70.061-56.994-127.06-127.05-127.06-70.062 0-127.061 56.999-127.061 127.06v169.99c0 6.27-5.101 11.37-11.37 11.37s-11.369-5.101-11.369-11.37v-2.65c0-4.142-3.357-7.5-7.5-7.5h-27.486c.021-.464.036-.93.036-1.4v-19.94c0-.47-.014-.936-.036-1.4h27.486c4.143 0 7.5-3.358 7.5-7.5v-129.6c0-82.6 67.2-149.8 149.8-149.8 41.99 0 82.345 17.86 110.716 49.001 2.789 3.062 7.533 3.284 10.595.493 3.062-2.79 3.283-7.533.493-10.595-31.206-34.254-75.603-53.899-121.804-53.899-90.871 0-164.8 73.929-164.8 164.8v122.1h-24.751c-5.427-8.481-14.924-14.12-25.719-14.12h-101.41c-16.829 0-30.52 13.692-30.52 30.52v19.94c0 16.829 13.691 30.52 30.52 30.52h4.19c4.143 0 7.5-3.358 7.5-7.5s-3.357-7.5-7.5-7.5h-4.19c-8.558 0-15.52-6.962-15.52-15.52v-19.94c0-8.558 6.962-15.52 15.52-15.52h101.41c8.558 0 15.521 6.962 15.521 15.52v19.94c0 8.558-6.963 15.52-15.521 15.52h-67.22c-4.143 0-7.5 3.358-7.5 7.5s3.357 7.5 7.5 7.5h67.22c10.795 0 20.292-5.639 25.719-14.12h25.198c2.282 12.232 13.038 21.52 25.922 21.52 8.856 0 16.701-4.393 21.485-11.109 5.603 5.179 13.086 8.352 21.3 8.352 9.565 0 18.146-4.297 23.911-11.063 5.766 6.766 14.346 11.063 23.911 11.063s18.146-4.297 23.911-11.063c5.766 6.766 14.346 11.063 23.911 11.063s18.146-4.297 23.911-11.063c5.766 6.766 14.346 11.063 23.911 11.063s18.146-4.297 23.911-11.063c5.766 6.766 14.346 11.063 23.911 11.063 8.211 0 15.694-3.171 21.296-8.348 4.787 6.714 12.633 11.105 21.49 11.105 14.54 0 26.37-11.83 26.37-26.37v-169.99c.002-30.344-8.344-60.012-24.132-85.797zm-140.666-26.263c61.784 0 112.05 50.27 112.05 112.06v125.19h-224.11v-125.19c0-61.79 50.27-112.06 112.06-112.06zm95.644 290.662c-9.049 0-16.411-7.362-16.411-16.411 0-4.142-3.357-7.5-7.5-7.5s-7.5 3.358-7.5 7.5c0 9.049-7.362 16.411-16.411 16.411s-16.411-7.362-16.411-16.411c0-4.142-3.357-7.5-7.5-7.5s-7.5 3.358-7.5 7.5c0 9.049-7.362 16.411-16.411 16.411s-16.411-7.362-16.411-16.411c0-4.142-3.357-7.5-7.5-7.5s-7.5 3.358-7.5 7.5c0 9.049-7.362 16.411-16.411 16.411s-16.411-7.362-16.411-16.411c0-4.142-3.357-7.5-7.5-7.5s-7.5 3.358-7.5 7.5c0 9.049-7.362 16.411-16.411 16.411s-16.411-7.362-16.411-16.411v-22h224.105v22.097c-.053 9.004-7.39 16.314-16.406 16.314z"/></g></svg>